<?xml version="1.0" standalone="no"?>
<!DOCTYPE svg PUBLIC "-//W3C//DTD SVG 20010904//EN"
 "http://www.w3.org/TR/2001/REC-SVG-20010904/DTD/svg10.dtd">
<svg version="1.0" xmlns="http://www.w3.org/2000/svg"
 width="5669.000000pt" height="2919.000000pt" viewBox="0 0 5669.000000 2919.000000"
 preserveAspectRatio="xMidYMid meet">
<metadata>
Created by potrace 1.16, written by Peter Selinger 2001-2019
</metadata>
<g transform="translate(0.000000,2919.000000) scale(0.100000,-0.100000)"
fill="#000000" stroke="none">
<path d="M28693 26994 c-67 -95 -82 -111 -136 -138 -50 -25 -58 -33 -68 -70
-20 -73 -27 -84 -71 -102 -109 -48 -120 -57 -140 -111 -17 -47 -25 -55 -71
-77 -29 -13 -66 -28 -82 -32 -59 -13 -106 -49 -155 -116 -27 -37 -66 -78 -87
-92 -45 -29 -99 -84 -141 -146 -17 -25 -44 -54 -61 -65 -25 -16 -121 -165
-121 -188 0 -15 50 -38 104 -48 52 -9 64 -8 115 12 87 35 135 73 185 146 74
108 102 142 144 173 28 20 45 43 57 77 34 97 90 195 126 224 20 16 42 41 48
57 14 33 117 127 155 142 14 5 39 28 55 50 51 70 105 100 184 100 58 0 139
-50 188 -116 21 -29 52 -60 67 -68 35 -18 75 -61 115 -122 18 -27 48 -58 67
-70 66 -42 102 -78 132 -131 35 -63 54 -76 125 -93 58 -13 93 -2 93 29 0 10
-22 36 -48 58 -27 23 -66 67 -87 98 -31 44 -53 64 -97 86 -56 28 -89 63 -130
138 -11 21 -36 39 -80 59 -74 34 -82 42 -112 119 -20 51 -28 61 -76 88 -52 29
-73 52 -112 124 -22 40 -59 42 -85 5z"/>
<path d="M27101 25345 c-33 -23 -81 -86 -120 -156 -20 -36 -52 -67 -136 -128
-25 -19 -60 -54 -78 -79 -17 -24 -44 -50 -59 -58 -45 -23 -132 -104 -151 -141
-10 -19 -30 -42 -46 -51 -51 -32 -141 -117 -141 -134 0 -10 9 -22 21 -28 16
-9 30 -6 70 15 28 14 67 38 88 53 20 15 62 38 92 51 105 45 123 56 174 107 30
30 64 54 82 58 24 6 43 23 75 68 70 98 89 118 123 132 37 16 89 86 116 156 20
53 13 107 -17 141 -23 25 -51 23 -93 -6z"/>
<path d="M25622 23888 c-26 -23 -90 -83 -142 -133 -52 -51 -128 -123 -168
-161 -41 -38 -80 -80 -87 -94 -8 -14 -47 -59 -88 -101 -41 -41 -84 -93 -95
-115 -15 -30 -43 -56 -105 -97 -65 -44 -88 -66 -102 -97 -10 -23 -28 -46 -39
-52 -45 -24 -120 -106 -141 -154 -16 -36 -39 -64 -78 -95 -32 -25 -65 -62 -77
-86 -35 -69 -77 -120 -118 -143 -22 -12 -49 -40 -61 -61 -24 -43 -79 -89 -131
-112 -47 -19 -74 -52 -94 -111 -20 -63 -21 -115 -1 -122 31 -12 62 5 79 45 21
46 76 101 127 127 40 21 259 246 259 266 0 35 54 91 115 118 58 26 66 34 104
99 23 39 50 75 59 80 10 5 55 18 101 30 47 11 90 26 96 33 7 7 19 34 29 60 20
55 84 131 125 147 22 10 37 31 65 89 20 42 46 92 59 110 12 18 52 79 88 135
36 56 77 112 90 123 13 12 73 45 132 75 60 29 115 62 122 73 16 26 29 118 20
145 -5 17 -15 21 -51 21 -38 0 -51 -6 -92 -42z"/>
<path d="M23710 21903 c-32 -68 -75 -119 -118 -140 -35 -17 -44 -29 -116 -154
-14 -25 -14 -25 15 -21 30 4 49 24 121 121 18 25 53 56 78 71 37 22 49 36 68
84 25 63 23 86 -7 86 -13 0 -26 -15 -41 -47z"/>
<path d="M23353 21524 c-10 -15 -36 -47 -59 -73 -23 -25 -47 -56 -53 -69 -7
-13 -25 -28 -41 -34 -16 -5 -41 -25 -55 -44 -14 -19 -43 -43 -63 -53 -50 -25
-129 -97 -148 -132 -8 -16 -43 -47 -78 -69 -49 -31 -73 -55 -104 -104 -31 -49
-52 -70 -92 -92 -35 -19 -58 -40 -70 -65 -31 -60 -68 -97 -131 -131 -45 -24
-69 -45 -96 -85 -24 -37 -59 -70 -107 -102 -44 -31 -78 -62 -90 -85 -12 -23
-43 -51 -85 -78 -75 -48 -243 -215 -262 -261 -17 -41 -2 -61 47 -65 32 -2 48
4 93 38 72 54 159 144 195 200 15 25 63 79 106 121 43 42 106 109 141 149 35
41 80 89 100 107 20 18 49 51 64 73 15 22 62 65 104 94 143 100 456 396 540
510 26 34 56 63 76 72 38 16 71 55 109 131 32 65 32 73 1 73 -15 0 -31 -10
-42 -26z"/>
<path d="M26582 21245 c-164 -12 -176 -14 -248 -49 -42 -20 -105 -56 -139 -80
-35 -25 -98 -55 -144 -71 -45 -15 -95 -38 -110 -51 -30 -25 -127 -74 -149 -74
-6 0 -55 -21 -108 -47 -67 -33 -105 -59 -123 -83 -14 -19 -35 -42 -46 -50 -11
-8 -41 -36 -66 -62 -26 -27 -51 -48 -57 -48 -6 0 -22 -16 -35 -35 -28 -41
-105 -93 -157 -107 -19 -5 -59 -20 -88 -34 -41 -19 -57 -32 -68 -59 -8 -20
-32 -48 -53 -63 -40 -29 -101 -109 -101 -133 0 -23 -68 -159 -80 -159 -6 0
-39 -30 -74 -67 -88 -91 -93 -113 -72 -289 18 -152 42 -210 104 -249 17 -11
39 -36 48 -55 9 -19 26 -46 38 -58 29 -33 109 -72 146 -72 44 0 122 -43 143
-79 11 -19 31 -35 55 -42 20 -7 138 -15 262 -20 124 -4 306 -11 405 -15 124
-4 208 -3 270 6 50 7 196 16 325 20 254 8 295 16 378 68 58 37 142 52 283 52
148 0 307 17 432 46 77 17 117 22 140 16 40 -10 79 -4 74 11 -2 8 -41 15 -103
19 -121 8 -313 50 -370 80 -23 13 -68 41 -101 63 l-58 40 -345 0 c-393 0
-1053 21 -1150 36 -71 11 -108 31 -157 81 -29 30 -34 42 -39 108 -13 155 32
249 139 288 41 15 58 29 84 67 48 72 92 114 150 141 32 16 69 45 99 81 58 67
113 95 245 123 72 16 107 29 149 58 83 58 129 72 315 98 220 30 253 41 319
101 59 54 87 65 226 88 353 57 534 73 623 56 100 -18 108 -24 286 -206 41 -43
50 -59 60 -110 16 -81 27 -104 54 -114 22 -9 85 -74 120 -125 25 -36 47 -33
103 14 27 22 54 40 60 40 6 0 43 28 82 63 39 35 97 77 129 95 32 17 64 41 71
52 20 33 27 149 12 211 -15 64 -31 86 -74 95 -54 11 -108 44 -188 115 -43 38
-79 69 -81 69 -33 0 -223 46 -265 64 -43 19 -82 26 -162 31 -143 8 -207 20
-325 60 -66 22 -135 37 -204 44 -170 18 -694 21 -889 6z"/>
<path d="M21470 19742 c-63 -32 -186 -137 -265 -227 -76 -84 -133 -136 -246
-220 -113 -85 -129 -118 -129 -263 0 -78 9 -92 58 -92 62 0 114 22 131 55 22
42 89 106 136 130 59 29 75 45 75 74 1 41 34 105 70 133 18 14 44 46 59 71 14
25 59 94 99 152 64 93 102 166 102 196 0 15 -54 10 -90 -9z"/>
<path d="M30635 19169 c-77 -3 -152 -11 -167 -17 -34 -14 -37 -50 -7 -78 18
-16 36 -19 133 -18 130 1 210 16 286 52 57 27 74 42 62 54 -11 10 -153 14
-307 7z"/>
<path d="M20420 18603 c-13 -10 -56 -29 -94 -43 -69 -24 -71 -26 -89 -75 -22
-59 -48 -89 -113 -124 -48 -26 -54 -33 -94 -123 -17 -38 -34 -55 -81 -84 -40
-24 -66 -48 -79 -74 -28 -55 -68 -98 -110 -120 -21 -11 -47 -32 -59 -47 -65
-89 -90 -116 -124 -140 -44 -31 -64 -63 -73 -121 -11 -67 1 -90 53 -113 50
-21 64 -35 90 -89 21 -41 97 -120 116 -120 18 0 58 -45 91 -103 20 -34 42 -56
82 -78 54 -31 75 -52 117 -119 14 -21 52 -52 95 -78 39 -24 79 -56 88 -71 9
-15 36 -40 59 -55 55 -34 112 -97 132 -144 8 -20 56 -78 107 -128 222 -223
275 -295 301 -410 24 -104 23 -103 66 -116 57 -17 115 -73 137 -133 15 -42 23
-52 52 -61 45 -15 95 -74 115 -135 18 -54 42 -76 92 -85 35 -7 104 -75 135
-132 13 -24 27 -34 63 -43 48 -12 83 -46 138 -136 19 -30 35 -43 59 -48 54
-12 105 -43 134 -81 15 -19 43 -44 63 -55 53 -28 115 -89 139 -135 12 -23 44
-61 72 -84 28 -24 72 -75 98 -114 34 -50 63 -82 104 -108 31 -21 75 -60 99
-88 23 -27 80 -78 128 -112 47 -34 112 -89 145 -121 32 -32 84 -76 115 -96 31
-21 76 -62 101 -90 25 -29 72 -81 105 -115 33 -35 83 -87 110 -117 28 -30 71
-69 96 -86 25 -18 53 -43 62 -57 25 -37 76 -84 134 -122 34 -22 66 -55 89 -92
20 -31 69 -89 108 -127 39 -39 94 -99 121 -134 28 -34 62 -70 78 -79 15 -9 38
-32 51 -52 42 -62 284 -297 357 -348 13 -9 30 -25 38 -35 8 -11 23 -27 34 -36
78 -63 177 -156 182 -170 11 -32 253 -267 405 -392 90 -75 283 -270 355 -358
33 -41 72 -83 88 -95 16 -11 34 -31 41 -43 23 -45 308 -339 357 -370 15 -8 33
-27 42 -42 9 -14 48 -57 87 -96 210 -209 338 -344 485 -510 161 -182 216 -238
344 -355 72 -65 93 -79 163 -102 45 -15 90 -36 102 -46 12 -11 75 -52 140 -91
149 -90 281 -217 291 -278 3 -21 8 -48 11 -61 2 -12 40 -57 83 -100 43 -42 86
-92 97 -110 10 -19 49 -56 86 -83 46 -34 76 -66 97 -103 19 -35 44 -62 73 -80
64 -39 94 -67 116 -111 23 -45 53 -76 98 -98 32 -17 70 -57 107 -117 13 -19
38 -44 57 -57 66 -41 101 -76 126 -124 19 -37 35 -54 72 -73 57 -29 95 -68
125 -127 17 -34 34 -50 79 -74 54 -28 108 -84 108 -111 0 -21 41 -64 61 -64
12 0 27 13 37 31 32 58 65 91 118 114 44 20 57 32 89 86 40 69 48 77 113 111
24 12 57 41 72 63 27 39 57 68 128 122 19 14 37 45 52 85 18 51 36 76 91 130
38 36 69 71 69 77 0 22 -67 9 -125 -24 -33 -18 -98 -54 -145 -79 -76 -40 -151
-101 -216 -176 -31 -36 -104 -94 -142 -114 -18 -9 -50 -32 -71 -51 -53 -48
-84 -58 -124 -41 -51 22 -112 94 -141 166 -17 44 -36 73 -58 90 -28 21 -86 77
-254 240 -14 14 -46 54 -72 90 -44 59 -52 66 -122 92 -48 18 -84 39 -100 58
-14 16 -45 43 -70 59 -25 16 -69 53 -98 82 -28 30 -71 74 -95 98 -49 51 -226
185 -279 212 -45 23 -64 50 -73 104 -11 66 -15 73 -48 93 -28 16 -50 45 -132
174 -11 17 -33 36 -50 41 -16 6 -63 38 -103 71 -40 34 -92 75 -115 91 -47 35
-98 100 -128 163 -12 26 -35 52 -55 64 -26 15 -46 42 -74 98 -36 71 -43 79
-89 98 -27 12 -53 22 -58 22 -7 0 -87 76 -149 142 -12 13 -34 31 -49 42 -15
10 -34 35 -42 54 -20 47 -77 117 -117 142 -30 18 -53 57 -86 146 -8 23 -24 37
-60 53 -57 26 -65 34 -110 118 -32 60 -40 67 -90 87 -48 18 -60 30 -101 91
-26 38 -57 74 -70 79 -80 32 -91 41 -134 108 -35 53 -55 73 -88 88 -57 26 -81
48 -105 95 -23 47 -43 65 -97 93 -49 25 -78 56 -98 103 -14 35 -72 89 -95 89
-21 0 -70 51 -85 88 -18 45 -59 87 -108 113 -39 19 -89 72 -89 93 0 26 -42 65
-98 91 -65 31 -104 64 -138 116 -16 27 -36 41 -71 53 -53 18 -130 91 -152 144
-7 17 -28 40 -47 51 -18 11 -45 39 -60 63 -53 85 -87 119 -138 142 -29 13 -60
36 -71 52 -10 16 -32 43 -49 61 -17 18 -49 51 -72 75 -27 29 -44 59 -53 93
-24 93 -31 104 -70 115 -69 19 -100 46 -131 115 -23 52 -34 66 -57 71 -78 18
-119 45 -149 95 -24 41 -42 58 -103 91 -62 34 -76 47 -93 84 -17 40 -28 49
-136 106 -127 68 -177 108 -258 209 -29 37 -138 152 -242 255 -103 104 -194
198 -202 210 -15 20 -140 118 -209 163 -37 24 -59 51 -149 186 -29 44 -64 86
-77 93 -25 12 -95 105 -127 168 -10 18 -33 41 -50 50 -35 18 -158 139 -158
155 0 6 -24 21 -54 34 -41 18 -75 47 -147 125 -52 56 -102 116 -111 133 -23
44 -106 131 -145 151 -18 9 -41 33 -52 54 -11 21 -35 45 -55 56 -20 11 -36 23
-36 27 0 5 -19 21 -42 36 -29 20 -48 43 -64 80 -13 29 -28 53 -33 53 -18 0
-173 123 -183 146 -6 13 -30 35 -52 48 -23 13 -70 54 -106 91 -36 36 -96 90
-135 119 -38 30 -147 130 -242 222 -97 95 -200 186 -235 208 -35 22 -89 60
-122 85 l-58 46 6 49 c12 109 123 275 241 362 91 67 145 127 177 194 22 47 53
87 112 145 45 44 93 96 106 115 14 19 50 63 82 97 57 61 76 99 64 128 -7 19
-16 19 -46 -2z"/>
<path d="M32320 18345 c-10 -12 -9 -24 5 -60 17 -46 37 -63 83 -71 40 -8 58
-29 75 -92 33 -119 40 -188 27 -275 -13 -92 -23 -115 -76 -178 -49 -58 -68
-105 -90 -214 -23 -118 -36 -148 -81 -182 -68 -51 -108 -99 -126 -151 -15 -44
-24 -55 -60 -73 -74 -37 -108 -70 -133 -125 -16 -36 -47 -76 -100 -126 -42
-40 -84 -89 -94 -109 -11 -20 -30 -43 -43 -52 -14 -9 -41 -45 -61 -80 -19 -35
-51 -82 -70 -103 -20 -21 -36 -42 -36 -46 0 -3 -36 -37 -80 -76 -55 -48 -100
-77 -141 -92 -51 -20 -65 -30 -95 -76 -41 -61 -75 -85 -157 -108 -48 -14 -62
-23 -75 -49 -31 -60 -84 -101 -153 -122 -105 -31 -135 -50 -180 -116 -42 -62
-68 -80 -165 -111 -32 -11 -43 -22 -62 -61 -29 -60 -80 -94 -192 -127 -72 -21
-86 -29 -118 -68 -53 -65 -105 -90 -239 -117 -121 -24 -119 -23 -165 -89 -27
-38 -117 -84 -196 -101 -100 -21 -142 -40 -177 -81 -19 -22 -50 -41 -85 -53
-61 -22 -230 -43 -271 -34 -39 7 -75 -16 -117 -77 -21 -30 -51 -61 -68 -69
-47 -23 -234 -35 -354 -22 -139 15 -181 14 -217 -4 -24 -12 -30 -22 -31 -50
-4 -103 -117 -147 -379 -147 -123 0 -137 2 -185 27 -139 68 -180 93 -204 125
-84 113 -86 181 -13 431 31 108 51 199 53 240 4 66 21 114 51 139 26 21 44 64
66 152 27 107 49 148 103 193 56 46 82 88 102 171 20 77 47 120 94 151 68 43
89 64 99 99 15 56 68 129 107 150 28 14 44 34 65 81 16 34 29 70 29 80 1 10
11 38 24 63 19 35 36 51 82 75 54 27 62 36 94 100 35 70 70 100 139 118 14 3
31 28 50 70 30 67 66 102 129 127 26 10 41 28 67 81 30 59 42 72 92 102 52 30
62 41 96 111 32 64 59 97 154 191 121 119 134 145 74 145 -17 0 -54 -9 -84
-20 -41 -16 -58 -28 -73 -55 -19 -37 -117 -101 -227 -150 -44 -19 -60 -32 -70
-57 -10 -23 -33 -45 -75 -71 -33 -20 -64 -37 -70 -37 -20 0 -93 -62 -117 -100
-15 -23 -44 -50 -73 -65 -95 -52 -156 -96 -175 -124 -10 -16 -33 -38 -50 -49
-163 -98 -205 -127 -227 -158 -18 -25 -43 -43 -85 -60 -80 -32 -103 -51 -134
-109 -23 -43 -35 -54 -94 -82 -66 -32 -69 -35 -98 -101 -27 -60 -36 -72 -74
-90 -45 -22 -75 -59 -115 -145 -17 -35 -30 -49 -61 -61 -45 -18 -97 -69 -140
-137 -17 -27 -42 -52 -60 -59 -45 -19 -107 -110 -136 -198 -21 -66 -33 -85
-83 -134 -41 -40 -64 -73 -78 -111 -31 -83 -57 -120 -104 -147 -35 -22 -46
-36 -64 -85 -43 -121 -93 -212 -131 -243 -28 -22 -47 -50 -71 -109 -42 -103
-42 -135 1 -175 17 -16 46 -36 64 -44 18 -8 57 -45 88 -83 38 -47 70 -76 101
-90 26 -13 53 -34 62 -52 18 -31 89 -71 150 -84 53 -11 154 -55 190 -82 18
-13 44 -42 58 -63 32 -48 104 -84 199 -101 106 -18 165 -49 204 -109 25 -38
41 -52 69 -60 37 -9 343 -21 642 -24 85 0 185 -5 221 -9 71 -10 99 3 99 44 0
37 28 88 57 102 29 15 46 19 182 43 46 8 92 19 103 25 11 6 33 40 49 75 34 75
47 83 182 117 111 28 178 64 204 108 30 51 82 71 202 76 145 6 163 13 213 81
23 32 49 63 57 70 29 23 82 42 149 53 95 16 126 33 169 96 21 30 50 61 66 70
15 8 78 21 138 29 61 8 119 19 130 24 10 6 34 35 53 65 41 64 61 78 141 100
88 25 149 62 184 110 38 53 79 73 193 94 l90 16 65 77 c58 68 73 80 132 103
86 33 85 32 110 86 28 59 51 80 129 119 44 22 69 42 87 70 14 22 29 40 33 40
4 0 32 16 62 35 50 32 105 54 172 69 19 4 34 19 47 44 24 46 97 117 131 127
44 13 79 45 98 88 23 51 48 74 115 107 33 15 60 38 74 60 42 68 67 93 110 112
48 21 69 46 110 128 18 35 41 63 63 77 70 44 81 57 91 107 5 26 29 91 55 143
35 73 53 99 80 115 48 28 61 59 78 179 25 178 27 217 15 311 -12 104 -24 127
-85 169 -43 29 -48 38 -143 220 -39 76 -49 88 -95 112 -54 29 -150 114 -180
159 -33 50 -137 77 -166 43z"/>
<path d="M19319 17322 c12 -23 -4 -52 -29 -52 -14 0 -20 -7 -20 -22 0 -15 -15
-36 -41 -59 -36 -30 -41 -40 -35 -62 4 -17 15 -29 31 -33 36 -9 53 1 72 41 12
25 23 35 34 32 15 -4 15 0 3 40 -10 33 -11 50 -3 65 12 22 4 68 -12 68 -6 0
-6 -6 0 -18z"/>
<path d="M37160 16822 c-12 -10 -34 -42 -48 -72 -25 -51 -31 -57 -84 -75 -56
-20 -108 -58 -108 -79 0 -35 -41 -82 -101 -116 -38 -21 -73 -50 -86 -70 -43
-68 -68 -94 -126 -130 -36 -23 -71 -56 -92 -87 -33 -49 -67 -80 -153 -138 -24
-16 -50 -38 -57 -48 -35 -50 -118 -125 -173 -157 -38 -22 -68 -48 -81 -70 -30
-53 -80 -96 -143 -124 -46 -20 -58 -31 -67 -59 -16 -47 -79 -105 -137 -125
-45 -16 -52 -23 -81 -81 -38 -75 -63 -104 -120 -138 -29 -17 -45 -35 -54 -60
-14 -44 -80 -112 -133 -137 -21 -10 -45 -31 -55 -49 -21 -41 -99 -119 -151
-152 -22 -14 -48 -41 -57 -61 -12 -24 -43 -52 -100 -91 -58 -39 -89 -67 -106
-97 -16 -30 -36 -47 -72 -64 -68 -32 -103 -67 -131 -129 -17 -38 -33 -57 -58
-70 -19 -10 -64 -52 -100 -93 -59 -69 -70 -77 -138 -100 -72 -25 -73 -26 -106
-87 -27 -51 -42 -67 -84 -90 -42 -23 -55 -37 -74 -79 -29 -65 -67 -110 -101
-119 -48 -11 -74 -35 -98 -88 -26 -59 -66 -107 -90 -107 -38 0 -77 -32 -100
-83 -27 -61 -66 -100 -116 -116 -44 -14 -65 -36 -80 -82 -17 -49 -56 -88 -117
-115 -45 -21 -56 -31 -73 -72 -25 -58 -52 -88 -104 -114 -55 -28 -83 -55 -90
-89 -8 -35 -53 -81 -122 -126 -43 -27 -54 -41 -64 -76 -12 -45 -61 -99 -130
-143 -26 -16 -46 -40 -58 -67 -17 -40 -87 -108 -153 -150 -15 -10 -36 -34 -47
-55 -10 -20 -32 -45 -48 -54 -26 -16 -72 -60 -192 -186 -93 -97 -115 -175 -40
-137 87 45 232 147 312 219 48 44 103 89 122 100 18 10 43 37 55 60 19 38 89
117 156 176 16 14 36 35 45 45 9 11 42 38 74 60 90 63 114 84 130 119 9 18 26
38 38 43 42 20 139 108 158 145 12 24 34 45 59 58 56 29 107 76 137 127 21 37
37 49 95 75 64 29 71 35 101 92 29 55 39 65 101 97 63 33 71 41 98 97 27 57
34 64 100 99 66 36 71 41 88 91 20 60 42 88 85 106 31 14 85 62 85 78 0 19 83
97 109 103 31 7 101 61 101 78 0 7 11 35 24 64 19 40 34 57 66 73 29 15 47 33
59 60 23 52 92 125 141 150 25 13 47 34 59 58 25 49 86 106 141 135 32 16 51
34 68 67 22 43 73 88 137 120 18 9 41 35 57 65 28 52 68 91 131 127 26 15 45
37 60 70 17 37 41 63 100 109 58 45 83 72 97 104 10 24 29 49 42 56 44 24 140
114 153 145 7 17 25 40 40 50 41 30 149 136 168 166 10 15 35 37 56 48 22 11
42 29 46 40 3 11 19 29 35 40 16 11 38 36 50 55 12 20 39 45 61 55 21 11 44
31 51 44 24 44 114 134 156 155 23 12 47 31 53 44 18 35 109 116 161 143 30
15 63 44 88 78 27 36 67 71 115 101 58 36 79 56 103 98 16 29 48 69 71 90 65
58 169 217 156 237 -10 16 -71 11 -95 -8z"/>
<path d="M31991 11744 c-58 -25 -137 -101 -241 -231 -55 -69 -100 -128 -100
-132 0 -5 -22 -39 -50 -76 -51 -70 -54 -85 -17 -85 34 0 65 27 92 80 18 35 44
63 94 100 39 29 73 62 77 73 4 12 44 60 90 108 77 80 121 149 108 170 -7 12
-12 11 -53 -7z"/>
<path d="M31331 11069 c-73 -26 -92 -38 -141 -88 -31 -31 -76 -71 -101 -87
-24 -16 -52 -43 -62 -59 -76 -124 -100 -157 -130 -177 -42 -27 -128 -201 -109
-220 21 -21 63 5 112 67 25 33 71 76 101 96 30 20 74 63 99 95 25 32 71 79
103 104 31 25 79 73 107 108 29 35 72 81 96 104 28 26 44 49 44 64 0 31 -12
30 -119 -7z"/>
<path d="M30350 10104 c-85 -35 -111 -55 -141 -110 -9 -18 -40 -42 -78 -63
-42 -22 -71 -46 -89 -74 -31 -46 -69 -85 -136 -140 -26 -22 -58 -60 -71 -87
-13 -26 -37 -58 -52 -71 -75 -65 -155 -204 -145 -255 9 -51 86 -19 151 62 24
31 65 71 92 91 27 19 49 38 49 42 0 17 107 125 159 161 89 61 321 274 362 332
30 41 41 91 29 122 -12 34 -27 33 -130 -10z"/>
<path d="M9010 6441 c25 -4 77 -17 115 -28 120 -36 154 -41 254 -38 135 4 186
13 239 42 26 14 36 22 22 18 -45 -14 -270 -17 -383 -6 -150 14 -306 22 -247
12z"/>
<path d="M21270 6441 c0 -8 7 -10 20 -6 12 4 20 2 20 -5 0 -6 3 -9 8 -7 4 3
36 -1 72 -9 66 -14 258 -16 315 -3 17 4 26 7 20 8 -5 1 -3 6 5 11 10 7 -12 10
-71 10 -47 0 -154 3 -237 7 -117 5 -152 3 -152 -6z"/>
<path d="M4393 6236 c-6 -8 -9 -17 -6 -20 4 -3 1 -6 -5 -6 -7 0 -12 -7 -12
-15 0 -8 -8 -15 -17 -16 -11 0 -13 -3 -6 -6 9 -3 10 -10 4 -21 -5 -9 -10 -21
-11 -27 -9 -38 -30 -49 -30 -15 0 14 5 18 18 14 12 -4 13 -3 4 3 -7 6 -10 18
-6 29 3 10 -3 6 -15 -11 -11 -16 -21 -38 -21 -47 0 -9 -4 -19 -8 -22 -5 -3 -7
16 -4 42 3 33 0 51 -9 59 -12 9 -13 2 -11 -45 4 -65 13 -80 34 -59 9 9 20 12
28 7 7 -4 20 -6 28 -2 9 3 13 1 9 -4 -5 -9 3 -11 53 -16 8 -1 40 0 71 0 78 3
99 22 91 80 -6 34 -13 47 -37 60 -16 9 -33 22 -37 27 -4 6 -8 6 -8 2 0 -5 -10
-1 -22 7 -27 19 -59 20 -75 2z"/>
<path d="M47275 6241 c-16 -3 -32 -13 -33 -21 -44 -198 -44 -195 -37 -470 23
-950 23 -1804 0 -2840 -7 -299 11 -419 65 -433 13 -3 25 2 35 16 13 19 15 19
21 2 7 -17 8 -17 21 1 12 16 13 15 13 -15 0 -19 -4 -30 -10 -26 -13 8 -13 8 5
-40 14 -39 14 -37 12 65 -1 76 -5 105 -14 105 -12 0 -15 6 -11 23 4 21 3 260
-2 257 -3 -2 -5 19 -5 45 0 26 3 46 8 43 4 -2 7 -11 7 -20 0 -9 3 -14 6 -10 4
3 -1 29 -10 57 -15 45 -15 53 -1 80 16 32 22 66 6 42 -14 -24 -21 12 -10 54 6
20 8 58 5 83 -8 70 -9 2163 -1 2184 4 9 2 46 -5 81 -12 64 -7 111 11 101 10
-7 13 18 3 28 -9 9 -12 76 -5 107 5 23 6 23 13 -10 4 -21 5 -11 1 25 -3 33 -8
92 -12 132 -3 40 -4 80 0 90 4 10 2 24 -4 31 -5 7 -10 44 -11 82 -1 37 -4 72
-8 76 -5 4 -8 18 -8 31 0 13 -5 23 -11 23 -6 0 -9 7 -5 15 3 8 4 14 3 14 -1
-1 -15 -4 -32 -8z"/>
<path d="M22138 6189 c-19 -10 -42 -29 -51 -43 -9 -13 -41 -36 -72 -50 -30
-15 -55 -30 -55 -35 0 -13 164 -21 203 -10 38 10 48 30 36 66 -5 12 -4 25 1
28 10 6 2 34 -15 51 -8 9 -20 7 -47 -7z"/>
<path d="M29319 6195 c-5 -20 -4 -32 4 -42 13 -18 -3 -16 -24 3 -13 12 -22 13
-38 5 -14 -8 -28 -8 -47 -1 -63 24 -86 -15 -90 -155 -3 -88 3 -145 21 -222 3
-13 12 -23 20 -23 16 0 18 8 35 115 6 39 18 91 26 117 13 41 20 48 48 53 17 4
38 5 46 3 11 -2 16 9 18 41 2 24 0 51 -4 60 -4 9 -6 24 -5 34 2 15 -7 25 -10
12z"/>
<path d="M54836 6109 c-32 -25 -33 -44 -4 -60 21 -11 247 -6 291 7 33 10 17
33 -38 53 -79 30 -211 30 -249 0z"/>
<path d="M9998 6114 c-4 -3 -36 -8 -73 -10 -71 -5 -125 -26 -125 -49 0 -22 36
-28 136 -20 101 7 119 18 107 63 -5 20 -32 30 -45 16z"/>
<path d="M2740 6099 c-30 -4 -73 -16 -95 -28 -22 -11 -49 -22 -59 -26 -11 -3
-15 -9 -10 -14 6 -6 340 11 362 18 1 1 2 7 2 14 0 32 -101 50 -200 36z"/>
<path d="M55790 6083 c-14 -2 -44 -11 -68 -20 -59 -22 -41 -30 102 -43 147
-14 214 -2 199 36 -10 28 -140 43 -233 27z"/>
<path d="M20700 6051 c-30 -4 -45 -11 -45 -20 0 -24 62 -33 164 -23 94 9 227
7 364 -3 56 -5 67 -3 67 10 0 8 -8 15 -17 16 -10 0 -36 2 -58 3 -22 2 -103 6
-180 10 -77 4 -165 8 -195 10 -30 2 -75 1 -100 -3z"/>
<path d="M4254 6040 c-12 -5 -25 -13 -29 -19 -3 -6 -11 -9 -16 -6 -5 4 -10 -2
-10 -12 -1 -19 -4 -35 -8 -43 -12 -25 -19 -271 -10 -315 3 -11 10 -29 16 -40
9 -16 14 -17 27 -6 9 7 13 17 10 23 -3 5 -1 14 4 21 15 20 32 152 35 277 2 41
6 81 10 87 6 9 3 11 -10 6 -16 -6 -16 -5 -4 10 17 22 12 27 -15 17z"/>
<path d="M52360 6026 c0 -3 7 -12 16 -21 13 -13 19 -14 25 -4 11 18 32 -39 23
-60 -3 -9 -8 -30 -9 -48 -4 -42 12 -47 126 -38 98 8 115 18 99 59 -5 14 -7 26
-3 26 4 0 -2 6 -13 14 -11 9 -30 12 -48 9 -18 -4 -27 -2 -23 4 4 6 -3 9 -18 8
-13 -2 -23 1 -22 7 1 6 -16 16 -37 24 -41 15 -116 27 -116 20z"/>
<path d="M47426 5203 c-7 -749 1 -2703 10 -2712 2 -2 4 788 4 1757 0 969 -2
1762 -3 1762 -2 0 -7 -363 -11 -807z"/>
<path d="M35863 5938 c-6 -7 -13 -29 -17 -49 l-6 -37 517 1 518 1 -455 6
c-250 3 -447 6 -437 8 9 1 17 7 17 13 0 5 -5 7 -11 4 -6 -4 -5 2 2 13 16 26
11 31 -38 43 -53 12 -79 11 -90 -3z"/>
<path d="M31841 5784 c-16 -37 -44 -220 -37 -248 3 -13 14 -34 24 -46 25 -31
54 -20 90 35 37 56 47 113 28 160 -18 42 -74 125 -85 125 -4 0 -13 -12 -20
-26z"/>
<path d="M44290 5752 c-15 -12 -24 -33 -27 -65 -11 -91 37 -287 72 -301 7 -2
34 16 59 41 38 37 46 51 46 81 0 45 -62 210 -90 240 -25 27 -32 27 -60 4z"/>
<path d="M1054 5285 c0 -187 1 -319 3 -292 2 26 9 47 14 47 6 0 7 -4 4 -10 -4
-6 4 -6 22 1 15 6 48 13 73 16 82 9 85 17 85 221 0 153 -2 182 -18 205 -12 19
-26 27 -45 27 -16 0 -33 5 -40 12 -6 6 -27 12 -46 13 -27 2 -33 -1 -29 -14 4
-11 3 -13 -5 -6 -6 6 -13 35 -15 65 -2 30 -3 -98 -3 -285z"/>
<path d="M38923 5185 c2 -39 0 -81 -5 -94 -4 -13 -10 -62 -13 -110 -2 -47 -9
-178 -16 -291 -10 -185 -6 -395 8 -444 7 -24 20 -9 28 34 13 64 18 923 6 950
-9 20 -11 12 -8 -45z"/>
<path d="M32365 5041 c-4 -3 -12 -6 -17 -6 -20 0 -20 -25 -1 -26 10 0 13 -3 6
-6 -19 -7 -16 -21 7 -28 15 -5 19 -12 15 -26 -4 -10 -3 -24 1 -31 9 -15 12
-58 4 -58 -3 0 -11 5 -18 12 -9 9 -9 5 0 -15 7 -15 19 -27 25 -27 9 0 10 -7 3
-26 -8 -19 -7 -31 2 -42 11 -13 11 -14 -1 -7 -10 6 -12 4 -7 -4 5 -7 15 -10
23 -7 11 5 14 2 9 -11 -5 -15 -4 -15 9 1 18 24 20 115 4 201 -7 33 -12 72 -12
86 0 21 -5 27 -23 27 -13 0 -26 -3 -29 -7z"/>
<path d="M32264 4978 c-4 -6 0 -14 7 -19 11 -7 11 -9 -2 -9 -12 0 -16 -13 -17
-57 -1 -32 -4 -76 -6 -98 -6 -75 26 -107 64 -63 16 18 34 28 46 26 15 -2 18 2
16 22 -5 33 -8 35 -29 19 -15 -12 -16 -12 -10 4 4 10 2 17 -6 17 -8 0 -8 3 2
9 10 7 11 9 0 13 -8 3 -13 26 -14 67 -2 34 -5 65 -9 68 -11 11 -36 12 -42 1z"/>
<path d="M19484 4798 c4 -29 10 -69 12 -88 5 -43 30 -130 43 -149 18 -28 24
35 15 162 l-9 122 -34 3 -34 3 7 -53z"/>
<path d="M43845 3820 c0 -481 1 -678 2 -438 2 241 2 635 0 875 -1 241 -2 44
-2 -437z"/>
<path d="M40965 3425 c0 -660 1 -931 2 -603 2 328 2 868 0 1200 -1 332 -2 63
-2 -597z"/>
<path d="M19079 4531 c11 -7 9 -10 -10 -13 l-24 -4 28 -12 c20 -8 27 -19 27
-38 0 -19 -4 -25 -15 -20 -26 10 -16 -3 14 -19 17 -8 30 -23 31 -32 8 -182 8
-496 -1 -528 -5 -22 -11 -47 -12 -55 -1 -8 -13 -21 -27 -29 l-24 -14 23 -8
c27 -11 22 -42 -15 -77 -13 -13 -24 -31 -23 -40 0 -13 3 -11 9 6 8 19 27 27
53 23 4 -1 7 4 6 11 -5 43 4 90 25 120 45 67 69 163 72 288 3 130 -15 232 -52
291 -13 20 -20 40 -17 43 4 3 2 6 -4 6 -6 0 -13 18 -16 40 -6 46 -22 70 -46
70 -13 0 -14 -2 -2 -9z"/>
<path d="M41025 3520 c0 -558 1 -787 2 -507 2 279 2 735 0 1015 -1 279 -2 50
-2 -508z"/>
<path d="M32660 3880 c-16 -57 -14 -199 3 -192 4 1 11 2 16 2 5 0 11 8 15 18
7 23 28 53 46 70 8 7 10 11 3 8 -7 -4 -10 1 -8 11 2 10 4 22 4 26 1 5 5 6 10
3 5 -4 12 0 14 6 3 8 6 6 6 -4 1 -10 -6 -18 -14 -18 -13 0 -14 -2 -3 -14 22
-23 28 -8 27 62 -1 37 -4 57 -6 44 -4 -23 -5 -23 -20 -5 -8 10 -12 13 -8 6 3
-7 -4 -17 -16 -23 -15 -8 -19 -9 -15 -1 4 7 -1 11 -13 11 -11 0 -21 8 -24 18
-2 10 -9 -1 -17 -28z"/>
<path d="M19490 3660 c-8 -5 -11 -10 -6 -10 6 0 2 -6 -7 -13 -33 -23 -68 -228
-46 -268 10 -20 11 -20 31 -2 40 35 68 112 68 188 0 71 -7 115 -19 115 -3 0
-13 -5 -21 -10z"/>
<path d="M47409 3363 c-1 -375 -9 -683 -19 -748 -6 -33 -10 -98 -11 -145 0
-75 -15 -193 -18 -147 -1 21 -8 21 -41 1 -14 -8 -17 -13 -7 -10 11 3 17 0 17
-10 0 -11 -7 -13 -27 -8 -19 4 -24 3 -15 -4 11 -7 7 -12 -17 -20 -26 -9 -31
-8 -36 8 -3 10 -13 24 -22 32 -14 11 -16 11 -8 -1 5 -10 4 -12 -3 -7 -7 4 -12
14 -12 22 0 8 -4 14 -8 14 -5 0 -9 6 -10 13 -1 12 -4 22 -17 63 -5 15 -21 26
-52 34 -39 12 -50 11 -91 -6 -35 -15 -48 -26 -54 -49 -14 -50 -1 -91 47 -139
46 -48 56 -51 118 -37 21 5 39 5 43 0 3 -5 10 -9 15 -9 6 0 7 4 4 10 -3 5 0 7
8 4 8 -3 17 -15 20 -26 4 -13 10 -17 18 -12 7 4 10 3 6 -3 -7 -11 19 -83 29
-83 3 0 2 5 -2 12 -5 7 -2 9 9 5 17 -6 32 19 17 28 -5 3 0 15 12 27 14 14 23
18 26 10 2 -7 8 -10 13 -6 5 3 9 -5 10 -18 1 -15 5 -9 12 19 16 55 24 61 31
24 3 -17 9 -46 13 -63 l7 -33 7 40 c4 22 7 101 7 175 -1 111 -2 122 -7 60 -4
-45 -13 -84 -22 -98 -16 -22 -16 -18 -12 70 2 51 9 149 14 218 12 147 25 1030
15 1030 -3 0 -6 -107 -7 -237z"/>
<path d="M33545 3420 c-9 -15 -19 -253 -11 -284 10 -40 32 -31 45 18 12 48 13
205 2 245 -7 27 -26 38 -36 21z"/>
<path d="M33335 2770 c-6 -27 9 -223 20 -240 10 -16 39 -12 57 9 16 19 16 40
-2 106 -7 22 -14 52 -17 66 -3 14 -15 39 -28 55 l-23 29 -7 -25z"/>
<path d="M30315 2483 c-40 -10 -55 -34 -55 -88 0 -28 5 -56 12 -63 15 -15 102
-15 145 0 22 8 33 19 33 31 0 34 -32 86 -65 107 -33 21 -36 21 -70 13z"/>
<path d="M1051 2370 c0 -81 3 -110 10 -97 6 9 15 17 20 17 6 0 7 -5 3 -12 -4
-6 -3 -8 2 -5 5 3 37 8 69 12 129 14 159 40 126 112 -16 36 -43 50 -116 59
-27 3 -52 8 -54 10 -2 2 -12 -1 -22 -6 -14 -8 -20 -6 -28 7 -7 13 -10 -15 -10
-97z"/>
<path d="M35846 2374 c4 -43 12 -85 17 -92 8 -10 32 -13 88 -10 43 1 80 6 84
10 4 3 -3 16 -14 27 -18 18 -19 25 -10 42 6 11 8 26 6 34 -3 7 0 18 6 25 9 10
8 12 -5 7 -11 -4 -17 -2 -15 5 1 6 -10 16 -25 22 -21 7 -36 5 -69 -9 -40 -19
-42 -19 -55 0 -12 16 -13 9 -8 -61z"/>
<path d="M39335 2408 c-4 -24 -7 -65 -8 -93 l-2 -50 42 -3 c52 -4 116 25 90
40 -19 10 -23 43 -6 53 6 4 8 14 5 22 -4 9 -2 11 5 7 7 -4 10 -1 7 7 -6 17 11
35 38 42 12 3 6 5 -14 6 -20 1 -31 -3 -27 -9 7 -12 3 -12 -19 -4 -9 3 -13 10
-10 15 7 11 6 11 -35 -1 -23 -6 -39 -6 -47 1 -10 8 -14 0 -19 -33z"/>
<path d="M41897 2440 c-16 -5 -35 -6 -42 -4 -17 7 -35 -53 -35 -118 0 -38 4
-48 20 -53 24 -8 140 14 140 26 0 8 -23 13 -42 10 -12 -2 -9 57 3 64 6 4 8 13
5 20 -2 7 1 18 7 25 9 10 8 12 -5 7 -12 -4 -16 -1 -13 14 4 21 3 21 -38 9z"/>
<path d="M33129 2411 c-22 -18 -24 -27 -24 -104 1 -64 5 -90 19 -112 17 -26
21 -27 83 -23 42 3 68 9 74 19 15 23 10 125 -8 170 -25 63 -97 88 -144 50z"/>
</g>
</svg>
